<svg width="1512" height="635" viewBox="0 0 1512 635" fill="none" xmlns="http://www.w3.org/2000/svg">
<g clip-path="url(#clip0_0_1)">
<path d="M552.281 565.941C552.245 562.145 555.365 560.321 555.505 560.234C553.749 557.654 551.022 557.299 550.05 557.259C547.73 557.021 545.521 558.634 544.341 558.634C543.161 558.634 541.344 557.292 539.419 557.332C536.886 557.368 534.551 558.812 533.245 561.092C530.618 565.673 532.576 572.476 535.141 576.2C536.397 578.021 537.886 580.072 539.851 579.996C541.743 579.92 542.455 578.766 544.736 578.766C547.017 578.766 547.661 579.996 549.658 579.96C551.691 579.92 552.979 578.1 554.224 576.273C555.656 574.156 556.25 572.111 556.286 572.002C556.239 571.984 552.324 570.475 552.281 565.941Z" fill="black"/>
<path d="M548.529 554.791C549.572 553.521 550.274 551.759 550.083 550C548.583 550.062 546.766 551.006 545.69 552.276C544.726 553.398 543.88 555.193 544.11 556.916C545.776 557.046 547.489 556.058 548.529 554.791ZM565.439 569.672L563.712 574.937H561.492L567.144 558.204H569.734L575.408 574.937H573.113L571.336 569.672H565.439ZM570.893 567.982L569.267 563.165C568.896 562.072 568.652 561.081 568.403 560.111H568.356C568.108 561.103 567.838 562.119 567.518 563.14L565.892 567.978L570.893 567.982ZM577.092 566.842C577.092 565.304 577.045 564.059 576.991 562.919H578.941L579.042 564.982H579.089C579.978 563.516 581.384 562.648 583.334 562.648C586.223 562.648 588.393 565.105 588.393 568.756C588.393 573.077 585.777 575.209 582.964 575.209C581.384 575.209 580.003 574.514 579.287 573.323H579.24V579.852H577.092V566.842ZM579.236 570.045C579.236 570.37 579.283 570.663 579.337 570.938C579.733 572.451 581.039 573.497 582.597 573.497C584.892 573.497 586.227 571.612 586.227 568.854C586.227 566.444 584.968 564.388 582.672 564.388C581.194 564.388 579.812 565.456 579.388 567.095C579.312 567.367 579.24 567.692 579.24 567.989L579.236 570.045ZM590.638 566.842C590.638 565.304 590.591 564.059 590.537 562.919H592.487L592.588 564.982H592.635C593.524 563.516 594.93 562.648 596.88 562.648C599.769 562.648 601.939 565.105 601.939 568.756C601.939 573.077 599.323 575.209 596.51 575.209C594.93 575.209 593.549 574.514 592.833 573.323H592.786V579.852H590.638V566.842ZM592.786 570.045C592.786 570.37 592.833 570.663 592.887 570.938C593.282 572.451 594.589 573.497 596.146 573.497C598.442 573.497 599.777 571.612 599.777 568.854C599.777 566.444 598.517 564.388 596.222 564.388C594.743 564.388 593.362 565.456 592.937 567.095C592.862 567.367 592.79 567.692 592.79 567.989L592.786 570.045ZM604.188 557.31H606.361V574.934H604.188V557.31ZM610.729 569.324C610.775 572.277 612.653 573.497 614.823 573.497C616.377 573.497 617.316 573.226 618.129 572.878L618.5 574.441C617.737 574.789 616.428 575.187 614.528 575.187C610.851 575.187 608.653 572.755 608.653 569.129C608.653 565.503 610.775 562.648 614.254 562.648C618.155 562.648 619.191 566.097 619.191 568.308C619.191 568.756 619.144 569.1 619.115 569.324H610.729ZM617.097 567.761C617.122 566.372 616.528 564.211 614.085 564.211C611.887 564.211 610.926 566.248 610.754 567.761H617.097Z" fill="black"/>
</g>
<rect x="0.5" y="0.5" width="1511" height="634" stroke="#FF0000"/>
<rect x="1315.5" y="634.5" width="1155" height="142" transform="rotate(-180 1315.5 634.5)" stroke="#FF0000"/>
<defs>
<clipPath id="clip0_0_1">
<rect width="87.1942" height="30" fill="white" transform="translate(532 550)"/>
</clipPath>
</defs>
</svg>
 