<svg width="1512" height="635" viewBox="0 0 1512 635" fill="none" xmlns="http://www.w3.org/2000/svg">
<g clip-path="url(#clip0_0_1)">
<path fill-rule="evenodd" clip-rule="evenodd" d="M865.709 573.622L867.181 570.183C868.769 571.378 870.886 572 872.975 572C874.517 572 875.493 571.402 875.493 570.496C875.469 567.964 866.256 569.946 866.186 563.596C866.162 560.371 869.01 557.886 873.046 557.886C875.446 557.886 877.841 558.484 879.552 559.845L878.176 563.354C876.61 562.349 874.663 561.633 872.81 561.633C871.551 561.633 870.721 562.23 870.721 562.994C870.745 565.479 880.029 564.118 880.123 570.183C880.123 573.479 877.346 575.798 873.357 575.798C870.434 575.794 867.751 575.101 865.709 573.622ZM922.198 568.941C921.463 570.231 920.086 571.113 918.492 571.113C916.14 571.113 914.244 569.202 914.244 566.84C914.244 564.478 916.144 562.567 918.492 562.567C920.081 562.567 921.463 563.449 922.198 564.739L926.258 562.472C924.74 559.75 921.816 557.886 918.492 557.886C913.575 557.886 909.586 561.899 909.586 566.845C909.586 571.791 913.575 575.803 918.492 575.803C921.84 575.803 924.74 573.963 926.258 571.217L922.198 568.941ZM882.164 550.455H887.247V575.462H882.164V550.455ZM928.252 550.455V575.462H933.335V567.959L939.365 575.462H945.872L938.201 566.551L945.301 558.237H939.078L933.33 565.138V550.455H928.252Z" fill="black"/>
<path d="M902.349 568.988C901.613 570.207 900.095 571.113 898.383 571.113C896.031 571.113 894.135 569.202 894.135 566.84C894.135 564.478 896.035 562.567 898.383 562.567C900.095 562.567 901.613 563.52 902.349 564.763V568.988ZM902.349 558.242V560.272C901.519 558.863 899.454 557.882 897.29 557.882C892.825 557.882 889.312 561.846 889.312 566.816C889.312 571.786 892.825 575.798 897.29 575.798C899.449 575.798 901.514 574.821 902.349 573.408V575.438H907.431V558.242H902.349Z" fill="black"/>
<path fill-rule="evenodd" clip-rule="evenodd" d="M834.294 568.965C834.294 570.71 832.894 572.118 831.159 572.118C829.424 572.118 828.023 570.705 828.023 568.965C828.023 567.224 829.424 565.811 831.159 565.811H834.294V568.965ZM835.86 568.965C835.86 567.219 837.26 565.811 838.995 565.811C840.73 565.811 842.13 567.219 842.13 568.965V576.846C842.13 578.592 840.73 580 838.995 580C837.26 580 835.86 578.592 835.86 576.846V568.965Z" fill="black"/>
<path fill-rule="evenodd" clip-rule="evenodd" d="M838.995 556.307C837.26 556.307 835.86 554.899 835.86 553.154C835.86 551.408 837.26 550 838.995 550C840.73 550 842.13 551.408 842.13 553.154V556.307H838.995ZM838.995 557.905C840.73 557.905 842.13 559.314 842.13 561.059C842.13 562.804 840.73 564.213 838.995 564.213H831.135C829.4 564.213 828 562.8 828 561.059C828 559.319 829.4 557.905 831.135 557.905H838.995Z" fill="black"/>
<path fill-rule="evenodd" clip-rule="evenodd" d="M851.555 561.059C851.555 559.314 852.956 557.905 854.691 557.905C856.426 557.905 857.826 559.314 857.826 561.059C857.826 562.804 856.426 564.213 854.691 564.213H851.555V561.059ZM849.99 561.059C849.99 562.804 848.59 564.213 846.855 564.213C845.12 564.213 843.719 562.804 843.719 561.059V553.154C843.719 551.408 845.12 550 846.855 550C848.59 550 849.99 551.408 849.99 553.154V561.059Z" fill="black"/>
<path fill-rule="evenodd" clip-rule="evenodd" d="M846.855 573.693C848.59 573.693 849.99 575.101 849.99 576.846C849.99 578.592 848.59 580 846.855 580C845.12 580 843.719 578.592 843.719 576.846V573.693H846.855ZM846.855 572.118C845.12 572.118 843.719 570.71 843.719 568.965C843.719 567.219 845.12 565.811 846.855 565.811H854.714C856.449 565.811 857.85 567.219 857.85 568.965C857.85 570.71 856.449 572.118 854.714 572.118H846.855Z" fill="black"/>
</g>
<rect x="0.5" y="0.5" width="1511" height="634" stroke="#FF0000"/>
<defs>
<clipPath id="clip0_0_1">
<rect width="117.872" height="30" fill="white" transform="translate(828 550)"/>
</clipPath>
</defs>
</svg>
