<svg width="1512" height="635" viewBox="0 0 1512 635" fill="none" xmlns="http://www.w3.org/2000/svg">
<g clip-path="url(#clip0_0_1)">
<path d="M1146.91 550C1138.68 550 1132 556.716 1132 565C1132 573.285 1138.68 580 1146.91 580C1155.15 580 1161.83 573.285 1161.83 565C1161.83 556.716 1155.15 550.001 1146.91 550.001L1146.91 550ZM1153.75 571.634C1153.48 572.076 1152.91 572.214 1152.47 571.945C1148.97 569.792 1144.56 569.306 1139.37 570.499C1138.87 570.614 1138.37 570.299 1138.26 569.796C1138.15 569.292 1138.46 568.791 1138.96 568.676C1144.64 567.37 1149.51 567.932 1153.44 570.348C1153.88 570.619 1154.02 571.194 1153.75 571.634L1153.75 571.634ZM1155.58 567.55C1155.24 568.101 1154.52 568.273 1153.98 567.935C1149.97 565.457 1143.86 564.74 1139.12 566.187C1138.5 566.374 1137.85 566.026 1137.67 565.408C1137.48 564.79 1137.83 564.138 1138.44 563.95C1143.86 562.297 1150.59 563.097 1155.19 565.943C1155.74 566.281 1155.91 567.001 1155.58 567.55L1155.58 567.55ZM1155.73 563.297C1150.93 560.426 1143 560.162 1138.41 561.563C1137.67 561.787 1136.89 561.369 1136.67 560.628C1136.45 559.886 1136.86 559.103 1137.6 558.878C1142.87 557.269 1151.62 557.58 1157.16 560.884C1157.82 561.28 1158.04 562.141 1157.65 562.807C1157.25 563.473 1156.39 563.693 1155.73 563.297H1155.73ZM1172.57 563.847C1170 563.23 1169.54 562.796 1169.54 561.886C1169.54 561.025 1170.35 560.446 1171.54 560.446C1172.7 560.446 1173.86 560.886 1175.06 561.791C1175.1 561.818 1175.15 561.829 1175.19 561.822C1175.24 561.815 1175.28 561.79 1175.3 561.753L1176.56 559.97C1176.61 559.897 1176.6 559.796 1176.53 559.74C1175.09 558.58 1173.47 558.017 1171.58 558.017C1168.8 558.017 1166.86 559.695 1166.86 562.096C1166.86 564.671 1168.53 565.582 1171.43 566.286C1173.89 566.857 1174.31 567.335 1174.31 568.19C1174.31 569.138 1173.47 569.726 1172.12 569.726C1170.61 569.726 1169.39 569.217 1168.01 568.023C1167.98 567.993 1167.93 567.98 1167.89 567.982C1167.85 567.986 1167.8 568.007 1167.78 568.042L1166.37 569.73C1166.31 569.8 1166.31 569.904 1166.38 569.965C1167.98 571.397 1169.94 572.154 1172.06 572.154C1175.05 572.154 1176.99 570.508 1176.99 567.96C1177 565.808 1175.71 564.617 1172.58 563.85L1172.57 563.847ZM1183.77 561.293C1182.47 561.293 1181.4 561.808 1180.53 562.862V561.675C1180.53 561.582 1180.45 561.505 1180.36 561.505H1178.05C1177.96 561.505 1177.88 561.582 1177.88 561.675V574.859C1177.88 574.952 1177.96 575.029 1178.05 575.029H1180.36C1180.45 575.029 1180.53 574.952 1180.53 574.859V570.697C1181.4 571.689 1182.47 572.173 1183.77 572.173C1186.18 572.173 1188.62 570.305 1188.62 566.734C1188.63 563.162 1186.18 561.293 1183.77 561.293L1183.77 561.293ZM1185.94 566.734C1185.94 568.553 1184.83 569.822 1183.23 569.822C1181.66 569.822 1180.47 568.495 1180.47 566.734C1180.47 564.973 1181.66 563.646 1183.23 563.646C1184.8 563.646 1185.94 564.944 1185.94 566.734L1185.94 566.734ZM1194.88 561.293C1191.78 561.293 1189.34 563.7 1189.34 566.773C1189.34 569.812 1191.76 572.194 1194.85 572.194C1197.96 572.194 1200.41 569.795 1200.41 566.734C1200.41 563.683 1197.98 561.294 1194.88 561.294L1194.88 561.293ZM1194.88 569.84C1193.23 569.84 1191.98 568.504 1191.98 566.733C1191.98 564.955 1193.19 563.664 1194.85 563.664C1196.51 563.664 1197.76 565 1197.76 566.772C1197.76 568.55 1196.55 569.84 1194.88 569.84H1194.88ZM1207.04 561.505H1204.5V558.896C1204.5 558.803 1204.43 558.726 1204.34 558.726H1202.03C1201.94 558.726 1201.86 558.803 1201.86 558.896V561.505H1200.75C1200.66 561.505 1200.58 561.582 1200.58 561.675V563.668C1200.58 563.762 1200.66 563.838 1200.75 563.838H1201.86V568.995C1201.86 571.079 1202.89 572.136 1204.93 572.136C1205.75 572.136 1206.44 571.964 1207.09 571.595C1207.14 571.566 1207.17 571.509 1207.17 571.448V569.55C1207.17 569.492 1207.14 569.437 1207.09 569.406C1207.04 569.374 1206.98 569.373 1206.93 569.398C1206.48 569.623 1206.05 569.727 1205.57 569.727C1204.83 569.727 1204.5 569.389 1204.5 568.632V563.839H1207.04C1207.13 563.839 1207.21 563.763 1207.21 563.669V561.676C1207.21 561.583 1207.14 561.506 1207.04 561.506L1207.04 561.505ZM1215.88 561.516V561.195C1215.88 560.252 1216.24 559.832 1217.05 559.832C1217.53 559.832 1217.91 559.928 1218.35 560.073C1218.4 560.09 1218.45 560.082 1218.5 560.049C1218.54 560.017 1218.57 559.966 1218.57 559.912V557.957C1218.57 557.883 1218.52 557.817 1218.45 557.795C1217.99 557.658 1217.41 557.518 1216.53 557.518C1214.4 557.518 1213.28 558.724 1213.28 561.004V561.495H1212.17C1212.08 561.495 1212 561.572 1212 561.665V563.668C1212 563.762 1212.08 563.838 1212.17 563.838H1213.28V571.793C1213.28 571.886 1213.35 571.963 1213.44 571.963H1215.75C1215.84 571.963 1215.92 571.886 1215.92 571.793V563.839H1218.07L1221.37 571.791C1220.99 572.627 1220.63 572.793 1220.12 572.793C1219.72 572.793 1219.29 572.671 1218.85 572.43C1218.81 572.408 1218.76 572.404 1218.72 572.418C1218.67 572.433 1218.64 572.466 1218.62 572.509L1217.84 574.234C1217.8 574.315 1217.83 574.411 1217.91 574.453C1218.73 574.897 1219.46 575.087 1220.37 575.087C1222.08 575.087 1223.02 574.29 1223.85 572.144L1227.85 561.748C1227.87 561.695 1227.86 561.636 1227.83 561.59C1227.8 561.544 1227.74 561.516 1227.69 561.516H1225.29C1225.22 561.516 1225.15 561.562 1225.13 561.63L1222.67 568.694L1219.98 561.625C1219.95 561.56 1219.89 561.516 1219.82 561.516H1215.88L1215.88 561.516ZM1210.76 561.505H1208.45C1208.36 561.505 1208.28 561.582 1208.28 561.675V571.793C1208.28 571.886 1208.36 571.963 1208.45 571.963H1210.76C1210.85 571.963 1210.92 571.886 1210.92 571.793V561.676C1210.92 561.654 1210.92 561.632 1210.91 561.611C1210.9 561.59 1210.89 561.571 1210.88 561.556C1210.86 561.54 1210.84 561.527 1210.82 561.519C1210.8 561.51 1210.78 561.506 1210.76 561.506L1210.76 561.505ZM1209.62 556.899C1208.7 556.899 1207.96 557.642 1207.96 558.561C1207.96 559.48 1208.7 560.225 1209.62 560.225C1210.53 560.225 1211.27 559.48 1211.27 558.561C1211.27 557.642 1210.53 556.899 1209.62 556.899H1209.62ZM1229.81 564.758C1228.9 564.758 1228.19 564.021 1228.19 563.126C1228.19 562.231 1228.91 561.486 1229.82 561.486C1230.74 561.486 1231.45 562.223 1231.45 563.117C1231.45 564.012 1230.73 564.758 1229.81 564.758H1229.81ZM1229.82 561.648C1228.99 561.648 1228.36 562.312 1228.36 563.126C1228.36 563.94 1228.99 564.595 1229.81 564.595C1230.65 564.595 1231.28 563.931 1231.28 563.117C1231.28 562.303 1230.65 561.648 1229.82 561.648H1229.82ZM1230.18 563.285L1230.64 563.931H1230.25L1229.84 563.338H1229.49V563.931H1229.16V562.218H1229.92C1230.32 562.218 1230.58 562.422 1230.58 562.764C1230.58 563.045 1230.42 563.217 1230.18 563.285H1230.18V563.285ZM1229.91 562.512H1229.49V563.054H1229.91C1230.12 563.054 1230.25 562.95 1230.25 562.782C1230.25 562.606 1230.12 562.512 1229.91 562.512H1229.91V562.512Z" fill="black"/>
</g>
<rect x="0.5" y="0.5" width="1511" height="634" stroke="#FF0000"/>
<rect x="1315.5" y="634.5" width="1155" height="142" transform="rotate(-180 1315.5 634.5)" stroke="#FF0000"/>
<defs>
<clipPath id="clip0_0_1">
<rect width="99.4451" height="30" fill="white" transform="translate(1132 550)"/>
</clipPath>
</defs>
</svg>
